<?xml version="1.0" encoding="UTF-8"?>
<svg version="1.1" xmlns="http://www.w3.org/2000/svg" width="375" height="81">
<path d="M0 0 C1.1146312 -0.00315216 2.22926239 -0.00630432 3.37767029 -0.009552 C4.59116653 -0.00752777 5.80466278 -0.00550354 7.05493164 -0.00341797 C8.91016197 -0.00485306 8.91016197 -0.00485306 10.8028717 -0.00631714 C14.09831475 -0.00717444 17.39371111 -0.00313412 20.68914795 0.00244141 C22.71140037 0.00439098 24.73360935 0.00245067 26.75585938 -0.00097656 C30.62640414 -0.00713646 34.49688423 -0.00640967 38.36743164 -0.00341797 C40.18463966 -0.00645432 40.18463966 -0.00645432 42.03855896 -0.009552 C43.71523399 -0.00482376 43.71523399 -0.00482376 45.42578125 0 C46.90684608 0.00119339 46.90684608 0.00119339 48.41783142 0.00241089 C50.77758789 0.12939453 50.77758789 0.12939453 52.77758789 1.12939453 C53.76905448 4.10379429 53.90977514 6.07515334 53.92285156 9.17993164 C53.93242134 10.72184425 53.93242134 10.72184425 53.94218445 12.29490662 C53.94385368 13.95901329 53.94385368 13.95901329 53.94555664 15.65673828 C53.94888504 16.79720108 53.95221344 17.93766388 53.9556427 19.11268616 C53.96070821 21.52604773 53.96305114 23.93941632 53.96289062 26.3527832 C53.96507708 30.0486197 53.98323695 33.74415775 54.00219727 37.43994141 C54.00513123 39.78303934 54.00711601 42.1261387 54.00805664 44.46923828 C54.01524216 45.5766185 54.02242767 46.68399872 54.02983093 47.82493591 C54.0267543 48.85602982 54.02367767 49.88712372 54.02050781 50.94946289 C54.02193283 51.85530624 54.02335785 52.7611496 54.02482605 53.69444275 C53.77758789 56.12939453 53.77758789 56.12939453 51.77758789 60.12939453 C32.63758789 60.12939453 13.49758789 60.12939453 -6.22241211 60.12939453 C-6.22241211 61.77939453 -6.22241211 63.42939453 -6.22241211 65.12939453 C-8.83046441 67.73744683 -9.92623151 67.38231239 -13.55834961 67.38818359 C-14.67290527 67.39448792 -15.78746094 67.40079224 -16.93579102 67.4072876 C-18.14412598 67.40323914 -19.35246094 67.39919067 -20.59741211 67.39501953 C-22.45052002 67.39788971 -22.45052002 67.39788971 -24.34106445 67.40081787 C-27.62832618 67.40253064 -30.91539998 67.39446152 -34.20263672 67.38330078 C-36.22035741 67.37939851 -38.23790412 67.38328624 -40.25561523 67.39013672 C-44.11963039 67.40245457 -47.98338639 67.40100431 -51.84741211 67.39501953 C-53.05574707 67.39906799 -54.26408203 67.40311646 -55.5090332 67.4072876 C-56.62358887 67.40098328 -57.73814453 67.39467896 -58.88647461 67.38818359 C-59.87083496 67.38659241 -60.85519531 67.38500122 -61.86938477 67.38336182 C-64.22241211 67.12939453 -64.22241211 67.12939453 -66.22241211 65.12939453 C-66.22241211 64.13939453 -66.22241211 63.14939453 -66.22241211 62.12939453 C-66.90701508 62.13161514 -67.59161804 62.13383575 -68.29696655 62.13612366 C-75.40166707 62.15819206 -82.50635791 62.17330768 -89.61108398 62.18432617 C-92.26505936 62.18936495 -94.91903195 62.19619605 -97.57299805 62.20483398 C-101.38062222 62.21691942 -105.1882098 62.22262728 -108.99584961 62.22705078 C-110.1885849 62.23221207 -111.38132019 62.23737335 -112.61019897 62.24269104 C-113.71118927 62.24276657 -114.81217957 62.2428421 -115.9465332 62.24291992 C-116.91916107 62.24514053 -117.89178894 62.24736115 -118.89389038 62.24964905 C-121.22241211 62.12939453 -121.22241211 62.12939453 -123.22241211 61.12939453 C-123.36678711 61.93376953 -123.51116211 62.73814453 -123.65991211 63.56689453 C-124.22241211 66.12939453 -124.22241211 66.12939453 -125.22241211 67.12939453 C-132.14919396 68.27993795 -139.15717056 68.25619863 -146.15600586 68.14892578 C-147.15575943 68.13480148 -148.155513 68.12067719 -149.18556213 68.10612488 C-151.27887501 68.07326062 -153.3721364 68.03694912 -155.46533203 67.99731445 C-158.67540138 67.94162582 -161.88504495 67.91339182 -165.09545898 67.88525391 C-167.13650468 67.84983704 -169.17752283 67.81278637 -171.21850586 67.77392578 C-172.65751503 67.76737724 -172.65751503 67.76737724 -174.12559509 67.76069641 C-175.01404617 67.73775009 -175.90249725 67.71480377 -176.81787109 67.69116211 C-177.59823227 67.67926346 -178.37859344 67.66736481 -179.18260193 67.65510559 C-181.22241211 67.12939453 -181.22241211 67.12939453 -182.99769592 65.21928406 C-184.22241211 63.12939453 -184.22241211 63.12939453 -184.22241211 61.12939453 C-185.21241211 61.62439453 -185.21241211 61.62439453 -186.22241211 62.12939453 C-187.96398109 62.19473834 -189.70817006 62.19486208 -191.45068359 62.16357422 C-192.54199081 62.14736023 -193.63329803 62.13114624 -194.75767517 62.11444092 C-195.9409993 62.09359436 -197.12432343 62.0727478 -198.34350586 62.05126953 C-200.82982098 62.02401431 -203.31615008 61.99801124 -205.80249023 61.97314453 C-209.73784468 61.92983669 -213.67248119 61.87916443 -217.60742188 61.80712891 C-221.39456491 61.74071693 -225.18091947 61.70579525 -228.96850586 61.67626953 C-230.14980576 61.64732605 -231.33110565 61.61838257 -232.54820251 61.58856201 C-233.6426619 61.58495667 -234.73712128 61.58135132 -235.86474609 61.57763672 C-236.82912094 61.56351746 -237.79349579 61.54939819 -238.78709412 61.53485107 C-241.47521932 61.90167771 -241.47521932 61.90167771 -242.90132141 64.62010193 C-243.33728134 65.44816849 -243.77324127 66.27623505 -244.22241211 67.12939453 C-246.7175293 67.82983398 -246.7175293 67.82983398 -249.76928711 67.93017578 C-250.93137695 67.97609863 -252.0934668 68.02202148 -253.29077148 68.06933594 C-255.23693359 68.09906494 -255.23693359 68.09906494 -257.22241211 68.12939453 C-257.91794189 68.14484314 -258.61347168 68.16029175 -259.33007812 68.1762085 C-263.91700883 68.27789238 -268.5016024 68.31517045 -273.08959961 68.31469727 C-275.48300452 68.3169043 -277.8759619 68.33519921 -280.26928711 68.35400391 C-295.14925344 68.40976808 -295.14925344 68.40976808 -302.22241211 66.12939453 C-303.48597533 63.60226809 -303.37451336 61.80594512 -303.41186523 58.97705078 C-303.42858276 57.90253662 -303.44530029 56.82802246 -303.46252441 55.72094727 C-303.47609985 54.55635986 -303.48967529 53.39177246 -303.50366211 52.19189453 C-303.52207153 51.00088135 -303.54048096 49.80986816 -303.55944824 48.58276367 C-303.63833796 43.4691693 -303.7059355 38.35543869 -303.7746582 33.24169922 C-303.82630223 29.51669633 -303.88358631 25.79180967 -303.94116211 22.06689453 C-303.95473755 20.90230713 -303.96831299 19.73771973 -303.9822998 18.5378418 C-303.99901733 17.46332764 -304.01573486 16.38881348 -304.03295898 15.28173828 C-304.04548706 14.33290771 -304.05801514 13.38407715 -304.07092285 12.40649414 C-304.07705052 10.09773884 -304.07705052 10.09773884 -305.22241211 8.12939453 C-304.09741211 5.50439453 -304.09741211 5.50439453 -302.22241211 3.12939453 C-299.53491211 2.81689453 -299.53491211 2.81689453 -297.22241211 3.12939453 C-297.55241211 4.44939453 -297.88241211 5.76939453 -298.22241211 7.12939453 C-271.49241211 6.63439453 -271.49241211 6.63439453 -244.22241211 6.12939453 C-243.56241211 4.80939453 -242.90241211 3.48939453 -242.22241211 2.12939453 C-239.69339189 0.86488442 -237.91685689 0.98869863 -235.0859375 0.96826172 C-234.01465103 0.95865417 -232.94336456 0.94904663 -231.83961487 0.93914795 C-230.67816452 0.93489807 -229.51671417 0.93064819 -228.32006836 0.92626953 C-227.13142685 0.92056946 -225.94278534 0.91486938 -224.71812439 0.90899658 C-222.20043837 0.89953777 -219.68273991 0.89300912 -217.16503906 0.88916016 C-213.30438795 0.87944355 -209.44426655 0.84842311 -205.58374023 0.81689453 C-203.14168612 0.81036586 -200.69962818 0.80511486 -198.25756836 0.80126953 C-197.09814224 0.78892273 -195.93871613 0.77657593 -194.74415588 0.76385498 C-193.13249794 0.76835663 -193.13249794 0.76835663 -191.48828125 0.77294922 C-190.5416713 0.76930359 -189.59506134 0.76565796 -188.61976624 0.76190186 C-186.22241211 1.12939453 -186.22241211 1.12939453 -184.39329529 2.40167236 C-183.22241211 4.12939453 -183.22241211 4.12939453 -183.22241211 8.12939453 C-182.56241211 7.79939453 -181.90241211 7.46939453 -181.22241211 7.12939453 C-179.45022634 7.06397785 -177.67546092 7.06395382 -175.90234375 7.09521484 C-174.79101578 7.11142883 -173.67968781 7.12764282 -172.53468323 7.14434814 C-171.32948532 7.1651947 -170.12428741 7.18604126 -168.88256836 7.20751953 C-166.35068009 7.23477471 -163.81877809 7.26077779 -161.28686523 7.28564453 C-157.27908571 7.32895326 -153.27196246 7.37730843 -149.26464844 7.45166016 C-145.40800877 7.51806807 -141.55214332 7.55299295 -137.69506836 7.58251953 C-136.49189468 7.61146301 -135.28872101 7.64040649 -134.04908752 7.67022705 C-132.93460739 7.6738324 -131.82012726 7.67743774 -130.671875 7.68115234 C-129.68973526 7.69527161 -128.70759552 7.70939087 -127.69569397 7.72393799 C-124.97652758 7.36047591 -124.97652758 7.36047591 -123.50682068 4.65740967 C-123.08296585 3.82316467 -122.65911102 2.98891968 -122.22241211 2.12939453 C-119.71946055 0.87791875 -117.99453451 0.9889364 -115.19360352 0.96826172 C-114.14556549 0.95865417 -113.09752747 0.94904663 -112.01773071 0.93914795 C-110.8812912 0.93489807 -109.74485168 0.93064819 -108.57397461 0.92626953 C-107.40990082 0.92056946 -106.24582703 0.91486938 -105.04647827 0.90899658 C-102.58006706 0.89953731 -100.11364315 0.89300894 -97.6472168 0.88916016 C-93.86997482 0.87945252 -90.09327633 0.84843619 -86.31616211 0.81689453 C-83.92293618 0.81036491 -81.52970636 0.80511428 -79.13647461 0.80126953 C-77.43788803 0.78274933 -77.43788803 0.78274933 -75.70498657 0.76385498 C-74.65064423 0.76685608 -73.59630188 0.76985718 -72.51000977 0.77294922 C-71.58338531 0.76930359 -70.65676086 0.76565796 -69.70205688 0.76190186 C-66.73093122 1.20223385 -65.33997958 2.01728481 -63.22241211 4.12939453 C-63.22241211 5.11939453 -63.22241211 6.10939453 -63.22241211 7.12939453 C-44.74241211 7.12939453 -26.26241211 7.12939453 -7.22241211 7.12939453 C-6.89241211 5.14939453 -6.56241211 3.16939453 -6.22241211 1.12939453 C-4.51893868 -0.57407889 -2.32866608 0.00187787 0 0 Z M-301.22241211 10.12939453 C-301.67460026 12.49475118 -301.67460026 12.49475118 -301.59472656 15.28173828 C-301.60095535 16.35625244 -301.60718414 17.4307666 -301.61360168 18.5378418 C-301.60439194 19.7024292 -301.59518219 20.8670166 -301.58569336 22.06689453 C-301.58619186 23.25790771 -301.58669037 24.4489209 -301.58720398 25.67602539 C-301.58486008 28.19793361 -301.57511315 30.71984402 -301.55859375 33.24169922 C-301.53500996 37.11333012 -301.53802959 40.98427263 -301.54467773 44.85595703 C-301.53910108 47.30127366 -301.53199129 49.74658737 -301.52319336 52.19189453 C-301.52410477 53.35648193 -301.52501617 54.52106934 -301.5259552 55.72094727 C-301.51642319 56.79546143 -301.50689117 57.86997559 -301.49707031 58.97705078 C-301.49246292 59.92588135 -301.48785553 60.87471191 -301.48310852 61.85229492 C-301.4389048 64.32762799 -301.4389048 64.32762799 -299.22241211 66.12939453 C-296.8913381 66.42881561 -296.8913381 66.42881561 -294.16186523 66.37231445 C-292.58012512 66.3769294 -292.58012512 66.3769294 -290.96643066 66.38163757 C-289.25236023 66.3708593 -289.25236023 66.3708593 -287.50366211 66.35986328 C-286.33484497 66.35940506 -285.16602783 66.35894684 -283.96179199 66.35847473 C-281.48696886 66.35544945 -279.01214768 66.34755499 -276.53735352 66.33520508 C-272.73829439 66.31697076 -268.93947913 66.31469519 -265.14038086 66.31494141 C-262.74063916 66.31002554 -260.34089912 66.30419693 -257.94116211 66.29736328 C-256.79844849 66.29625046 -255.65573486 66.29513763 -254.47839355 66.29399109 C-253.42390015 66.28761124 -252.36940674 66.28123138 -251.28295898 66.2746582 C-250.35189331 66.27084641 -249.42082764 66.26703461 -248.46154785 66.2631073 C-246.1847821 66.27437181 -246.1847821 66.27437181 -244.22241211 65.12939453 C-244.22241211 46.64939453 -244.22241211 28.16939453 -244.22241211 9.12939453 C-247.17594043 8.14488509 -249.11678012 7.99731885 -252.19702148 7.98413086 C-253.20817017 7.97775101 -254.21931885 7.97137115 -255.2611084 7.96479797 C-256.35177612 7.96368515 -257.44244385 7.96257233 -258.56616211 7.96142578 C-259.68680054 7.95809738 -260.80743896 7.95476898 -261.96203613 7.95133972 C-264.33251535 7.94627486 -266.7030017 7.94393126 -269.07348633 7.9440918 C-272.70788238 7.94190328 -276.34197595 7.9237371 -279.97631836 7.90478516 C-282.27709857 7.90185161 -284.57788022 7.89986656 -286.87866211 7.89892578 C-288.5146637 7.88814751 -288.5146637 7.88814751 -290.18371582 7.87715149 C-291.1948645 7.88022812 -292.20601318 7.88330475 -293.24780273 7.88647461 C-294.13810181 7.88504959 -295.02840088 7.88362457 -295.94567871 7.88215637 C-298.50224288 7.98254812 -298.50224288 7.98254812 -301.22241211 10.12939453 Z M-182.22241211 10.12939453 C-182.67460026 12.49475118 -182.67460026 12.49475118 -182.59472656 15.28173828 C-182.60095535 16.35625244 -182.60718414 17.4307666 -182.61360168 18.5378418 C-182.60439194 19.7024292 -182.59518219 20.8670166 -182.58569336 22.06689453 C-182.58619186 23.25790771 -182.58669037 24.4489209 -182.58720398 25.67602539 C-182.58486008 28.19793361 -182.57511315 30.71984402 -182.55859375 33.24169922 C-182.53500996 37.11333012 -182.53802959 40.98427263 -182.54467773 44.85595703 C-182.53910108 47.30127366 -182.53199129 49.74658737 -182.52319336 52.19189453 C-182.52410477 53.35648193 -182.52501617 54.52106934 -182.5259552 55.72094727 C-182.51642319 56.79546143 -182.50689117 57.86997559 -182.49707031 58.97705078 C-182.49246292 59.92588135 -182.48785553 60.87471191 -182.48310852 61.85229492 C-182.4389048 64.32762799 -182.4389048 64.32762799 -180.22241211 66.12939453 C-177.85120068 66.44274325 -177.85120068 66.44274325 -175.07006836 66.40405273 C-173.45829712 66.41835075 -173.45829712 66.41835075 -171.81396484 66.43293762 C-170.06708374 66.43157051 -170.06708374 66.43157051 -168.28491211 66.43017578 C-167.09389893 66.43446091 -165.90288574 66.43874603 -164.67578125 66.44316101 C-162.15389645 66.44891228 -159.63199506 66.44939874 -157.11010742 66.44506836 C-153.23840231 66.44190759 -149.36746019 66.46536169 -145.49584961 66.49072266 C-143.05053808 66.49299536 -140.60522448 66.49369928 -138.15991211 66.49267578 C-136.99532471 66.50188553 -135.8307373 66.51109528 -134.63085938 66.52058411 C-133.55634521 66.51435532 -132.48183105 66.50812653 -131.37475586 66.50170898 C-129.95151001 66.50265312 -129.95151001 66.50265312 -128.49951172 66.50361633 C-127.74806885 66.38012314 -126.99662598 66.25662994 -126.22241211 66.12939453 C-124.04302874 62.86031947 -123.97343743 61.93757408 -123.97949219 58.15478516 C-123.97641556 57.14363647 -123.97333893 56.13248779 -123.97016907 55.09069824 C-123.97735458 54.00003052 -123.9845401 52.90936279 -123.99194336 51.78564453 C-123.99240158 50.6650061 -123.9928598 49.54436768 -123.99333191 48.38977051 C-123.99635434 46.01927635 -124.00424035 43.64878417 -124.01660156 41.27832031 C-124.03483896 37.64397161 -124.03711137 34.00987793 -124.03686523 30.37548828 C-124.04178118 28.07470482 -124.04760983 25.77392309 -124.05444336 23.47314453 C-124.05555618 22.38247681 -124.05666901 21.29180908 -124.05781555 20.16809082 C-124.0641954 19.15694214 -124.07057526 18.14579346 -124.07714844 17.10400391 C-124.08096024 16.21370483 -124.08477203 15.32340576 -124.08869934 14.40612793 C-124.13311119 11.96385832 -124.13311119 11.96385832 -125.22241211 9.12939453 C-128.17594043 8.14488509 -130.11678012 7.99731885 -133.19702148 7.98413086 C-134.20817017 7.97775101 -135.21931885 7.97137115 -136.2611084 7.96479797 C-137.35177612 7.96368515 -138.44244385 7.96257233 -139.56616211 7.96142578 C-140.68680054 7.95809738 -141.80743896 7.95476898 -142.96203613 7.95133972 C-145.33251535 7.94627486 -147.7030017 7.94393126 -150.07348633 7.9440918 C-153.70788238 7.94190328 -157.34197595 7.9237371 -160.97631836 7.90478516 C-163.27709857 7.90185161 -165.57788022 7.89986656 -167.87866211 7.89892578 C-169.5146637 7.88814751 -169.5146637 7.88814751 -171.18371582 7.87715149 C-172.1948645 7.88022812 -173.20601318 7.88330475 -174.24780273 7.88647461 C-175.13810181 7.88504959 -176.02840088 7.88362457 -176.94567871 7.88215637 C-179.50224288 7.98254812 -179.50224288 7.98254812 -182.22241211 10.12939453 Z M-64.01579285 9.33601379 C-65.62892078 11.73358248 -65.59672355 13.31477381 -65.59472656 16.19580078 C-65.60095535 17.22697021 -65.60718414 18.25813965 -65.61360168 19.32055664 C-65.60439194 20.43309814 -65.59518219 21.54563965 -65.58569336 22.69189453 C-65.58619186 23.834729 -65.58669037 24.97756348 -65.58720398 26.1550293 C-65.58486224 28.57260882 -65.57512795 30.99019073 -65.55859375 33.40771484 C-65.53500598 37.11464164 -65.53803175 40.8208493 -65.54467773 44.52783203 C-65.53910099 46.8741905 -65.53199113 49.22054593 -65.52319336 51.56689453 C-65.52410477 52.67943604 -65.52501617 53.79197754 -65.5259552 54.93823242 C-65.51642319 55.96940186 -65.50689117 57.00057129 -65.49707031 58.06298828 C-65.49246292 58.97105225 -65.48785553 59.87911621 -65.48310852 60.81469727 C-65.37050397 63.40352415 -65.37050397 63.40352415 -63.22241211 66.12939453 C-60.85705547 66.58158268 -60.85705547 66.58158268 -58.07006836 66.50170898 C-56.45829712 66.51105217 -56.45829712 66.51105217 -54.81396484 66.52058411 C-53.64937744 66.51137436 -52.48479004 66.50216461 -51.28491211 66.49267578 C-50.09389893 66.49317429 -48.90288574 66.49367279 -47.67578125 66.4941864 C-45.15387303 66.49184251 -42.63196263 66.48209557 -40.11010742 66.46557617 C-36.23847652 66.44199239 -32.36753401 66.44501201 -28.49584961 66.45166016 C-26.05053298 66.4460835 -23.60521927 66.43897371 -21.15991211 66.43017578 C-19.99532471 66.43108719 -18.8307373 66.4319986 -17.63085938 66.43293762 C-16.55634521 66.42340561 -15.48183105 66.4138736 -14.37475586 66.40405273 C-13.42592529 66.39944534 -12.47709473 66.39483795 -11.49951172 66.39009094 C-9.02417865 66.34588722 -9.02417865 66.34588722 -7.22241211 64.12939453 C-6.90906339 61.7581831 -6.90906339 61.7581831 -6.94775391 58.97705078 C-6.93822189 57.90253662 -6.92868988 56.82802246 -6.91886902 55.72094727 C-6.91978043 54.55635986 -6.92069183 53.39177246 -6.92163086 52.19189453 C-6.91520317 50.40537476 -6.91520317 50.40537476 -6.90864563 48.58276367 C-6.90289436 46.06087887 -6.9024079 43.53897748 -6.90673828 41.01708984 C-6.90989906 37.14538473 -6.88644495 33.27444261 -6.86108398 29.40283203 C-6.85881128 26.9575205 -6.85810736 24.5122069 -6.85913086 22.06689453 C-6.84992111 20.90230713 -6.84071136 19.73771973 -6.83122253 18.5378418 C-6.83745132 17.46332764 -6.84368011 16.38881348 -6.85009766 15.28173828 C-6.84946823 14.33290771 -6.84883881 13.38407715 -6.84819031 12.40649414 C-6.9716835 11.65505127 -7.0951767 10.9036084 -7.22241211 10.12939453 C-10.50259884 7.94260338 -11.482754 7.87404777 -15.28881836 7.85473633 C-16.31998779 7.84520432 -17.35115723 7.8356723 -18.41357422 7.82585144 C-19.52611572 7.82676285 -20.63865723 7.82767426 -21.78491211 7.82861328 C-22.92774658 7.82432816 -24.07058105 7.82004303 -25.24804688 7.81562805 C-27.66560198 7.80988209 -30.08317437 7.80938644 -32.50073242 7.8137207 C-36.2077366 7.81688202 -39.91394408 7.79341908 -43.62084961 7.76806641 C-45.96720277 7.76579366 -48.31355808 7.7650898 -50.65991211 7.76611328 C-52.32872437 7.75229866 -52.32872437 7.75229866 -54.03125 7.73820496 C-55.57800415 7.74754814 -55.57800415 7.74754814 -57.15600586 7.75708008 C-58.06406982 7.75645065 -58.97213379 7.75582123 -59.90771484 7.75517273 C-62.25381152 7.96873934 -62.25381152 7.96873934 -64.01579285 9.33601379 Z M7.77758789 12.12939453 C8.10758789 23.67939453 8.43758789 35.22939453 8.77758789 47.12939453 C10.75758789 47.12939453 12.73758789 47.12939453 14.77758789 47.12939453 C14.77758789 42.17939453 14.77758789 37.22939453 14.77758789 32.12939453 C20.05758789 32.12939453 25.33758789 32.12939453 30.77758789 32.12939453 C31.10758789 37.07939453 31.43758789 42.02939453 31.77758789 47.12939453 C33.75758789 47.12939453 35.73758789 47.12939453 37.77758789 47.12939453 C37.77758789 35.57939453 37.77758789 24.02939453 37.77758789 12.12939453 C35.46758789 12.12939453 33.15758789 12.12939453 30.77758789 12.12939453 C30.77758789 16.74939453 30.77758789 21.36939453 30.77758789 26.12939453 C25.82758789 25.79939453 20.87758789 25.46939453 15.77758789 25.12939453 C15.44758789 20.83939453 15.11758789 16.54939453 14.77758789 12.12939453 C12.46758789 12.12939453 10.15758789 12.12939453 7.77758789 12.12939453 Z M-218.22241211 13.12939453 C-220.07815355 17.79076798 -221.92945102 22.45387178 -223.77661133 27.11865234 C-224.40591863 28.70605321 -225.03644807 30.29297012 -225.66821289 31.87939453 C-226.57489892 34.15678486 -227.47720809 36.43586654 -228.37866211 38.71533203 C-228.66302124 39.42684418 -228.94738037 40.13835632 -229.24035645 40.87142944 C-230.71617648 44.39279816 -230.71617648 44.39279816 -231.22241211 48.12939453 C-228.91241211 48.12939453 -226.60241211 48.12939453 -224.22241211 48.12939453 C-222.90241211 45.48939453 -221.58241211 42.84939453 -220.22241211 40.12939453 C-215.93241211 40.12939453 -211.64241211 40.12939453 -207.22241211 40.12939453 C-205.90241211 42.76939453 -204.58241211 45.40939453 -203.22241211 48.12939453 C-200.91241211 48.12939453 -198.60241211 48.12939453 -196.22241211 48.12939453 C-198.4030862 40.18639308 -201.30347259 32.62647154 -204.40991211 25.00439453 C-204.87333008 23.85712891 -205.33674805 22.70986328 -205.81420898 21.52783203 C-206.94632377 18.72672328 -208.08245745 15.92731971 -209.22241211 13.12939453 C-212.19241211 13.12939453 -215.16241211 13.12939453 -218.22241211 13.12939453 Z M-97.22241211 14.12939453 C-97.22241211 25.67939453 -97.22241211 37.22939453 -97.22241211 49.12939453 C-94.91241211 49.12939453 -92.60241211 49.12939453 -90.22241211 49.12939453 C-90.22241211 37.57939453 -90.22241211 26.02939453 -90.22241211 14.12939453 C-92.53241211 14.12939453 -94.84241211 14.12939453 -97.22241211 14.12939453 Z " fill="#FCFDFD" transform="translate(310.222412109375,9.87060546875)"/>
<path d="M0 0 C9 0 9 0 11.3046875 1.828125 C11.82289062 2.62734375 12.34109375 3.4265625 12.875 4.25 C13.67550781 5.43335938 13.67550781 5.43335938 14.4921875 6.640625 C14.98976563 7.41921875 15.48734375 8.1978125 16 9 C16.98975383 10.3409568 17.98645716 11.6769321 19 13 C24.08415774 11.13693116 25.84502687 6.77852055 28.51171875 2.3359375 C31 0 31 0 40 0 C40 11.88 40 23.76 40 36 C37.03 36 34.06 36 31 36 C30.505 26.1 30.505 26.1 30 16 C27.03 19.63 24.06 23.26 21 27 C15.79918006 25.26639335 13.27785839 20.2450953 10 16 C9.67 22.6 9.34 29.2 9 36 C6.03 36 3.06 36 0 36 C0 24.12 0 12.24 0 0 Z " fill="#FBFCFC" transform="translate(17,26)"/>
<path d="M0 0 C9 0 9 0 11.07568359 1.40527344 C11.51219238 2.05012695 11.94870117 2.69498047 12.3984375 3.359375 C12.89730469 4.06320313 13.39617187 4.76703125 13.91015625 5.4921875 C14.39355469 6.23726562 14.87695312 6.98234375 15.375 7.75 C15.88160156 8.47960938 16.38820312 9.20921875 16.91015625 9.9609375 C17.8540937 11.32357686 18.78586031 12.69479454 19.70068359 14.07714844 C21.06657151 16.09851882 22.5362474 18.04832986 24 20 C24.33 13.4 24.66 6.8 25 0 C27.64 0 30.28 0 33 0 C33 11.88 33 23.76 33 36 C25 36 25 36 22.93017578 34.57885742 C22.4401709 33.92763916 21.95016602 33.2764209 21.4453125 32.60546875 C20.61773437 31.54295898 20.61773437 31.54295898 19.7734375 30.45898438 C18.95746094 29.33459961 18.95746094 29.33459961 18.125 28.1875 C17.27421875 27.08051758 17.27421875 27.08051758 16.40625 25.95117188 C14.17043307 23.02394711 12.04355695 20.06533542 10 17 C9.67 23.27 9.34 29.54 9 36 C6.03 36 3.06 36 0 36 C0 24.12 0 12.24 0 0 Z " fill="#FBFBFB" transform="translate(139,27)"/>
<path d="M0 0 C1.94202011 0.97618418 3.83222572 1.99321758 5.69921875 3.10546875 C4.17349219 6.43182757 2.76577371 8.06109877 -0.30078125 10.10546875 C-1.29078125 9.44546875 -2.28078125 8.78546875 -3.30078125 8.10546875 C-6.42599958 7.93847643 -6.42599958 7.93847643 -9.30078125 8.10546875 C-9.30078125 9.42546875 -9.30078125 10.74546875 -9.30078125 12.10546875 C-8.07101562 12.55986328 -8.07101562 12.55986328 -6.81640625 13.0234375 C-5.73875 13.44238281 -4.66109375 13.86132812 -3.55078125 14.29296875 C-2.4834375 14.69902344 -1.41609375 15.10507812 -0.31640625 15.5234375 C3.0601026 17.29479253 4.64634582 18.91592155 6.69921875 22.10546875 C7.17391319 25.90302424 7.0231806 28.313562 5.57421875 31.85546875 C2.66943153 35.34121341 -0.11344139 36.80503011 -4.6328125 37.42578125 C-10.94021294 37.71644486 -14.90110724 36.30527557 -20.30078125 33.10546875 C-20.30078125 29.10546875 -20.30078125 29.10546875 -18.80078125 27.35546875 C-18.30578125 26.94296875 -17.81078125 26.53046875 -17.30078125 26.10546875 C-16.66140625 26.43546875 -16.02203125 26.76546875 -15.36328125 27.10546875 C-11.28841284 28.43603803 -7.548877 28.27206074 -3.30078125 28.10546875 C-3.30078125 26.78546875 -3.30078125 25.46546875 -3.30078125 24.10546875 C-4.120625 23.7909375 -4.94046875 23.47640625 -5.78515625 23.15234375 C-6.8628125 22.724375 -7.94046875 22.29640625 -9.05078125 21.85546875 C-10.65179688 21.22898437 -10.65179688 21.22898437 -12.28515625 20.58984375 C-15.34013106 19.08609967 -17.14169063 17.71563698 -19.30078125 15.10546875 C-20.27036069 11.85045207 -20.4625156 9.78475302 -19.67578125 6.48046875 C-15.56038892 -0.62793618 -7.52713671 -2.92650986 0 0 Z " fill="#FBFCFB" transform="translate(281.30078125,26.89453125)"/>
<path d="M0 0 C2.6875 -0.3125 2.6875 -0.3125 5 0 C4.6875 1.875 4.6875 1.875 4 4 C3.01 4.66 2.02 5.32 1 6 C0.59301287 8.4160065 0.59301287 8.4160065 0.73535156 11.26000977 C0.75237122 12.35777237 0.76939087 13.45553497 0.78692627 14.58656311 C0.82114685 15.77616135 0.85536743 16.96575958 0.890625 18.19140625 C0.91469421 19.40698715 0.93876343 20.62256805 0.96356201 21.87498474 C1.01729661 24.44830814 1.07831526 27.02148805 1.14599609 29.59448242 C1.24964951 33.54912807 1.33188377 37.50376282 1.41015625 41.45898438 C1.46489459 43.95315277 1.52084307 46.44729497 1.578125 48.94140625 C1.60424866 50.13302872 1.63037231 51.32465118 1.6572876 52.55238342 C1.68691589 53.64699387 1.71654419 54.74160431 1.74707031 55.86938477 C1.77166321 56.83820084 1.7962561 57.80701691 1.82159424 58.80519104 C1.75958232 60.97541359 1.75958232 60.97541359 3 62 C4.71865409 62.0935919 6.44115744 62.11744611 8.16235352 62.11352539 C9.81395226 62.11341209 9.81395226 62.11341209 11.49891663 62.11329651 C12.6968132 62.10813522 13.89470978 62.10297394 15.12890625 62.09765625 C16.34827377 62.0962413 17.5676413 62.09482635 18.82395935 62.09336853 C22.7368307 62.08774967 26.64964581 62.07519396 30.5625 62.0625 C33.20768147 62.05748743 35.85286383 62.0529241 38.49804688 62.04882812 C44.99873726 62.03862296 51.49930533 62.01905121 58 62 C58 44.18 58 26.36 58 8 C58.33 8 58.66 8 59 8 C59.01030746 8.59690643 59.02061493 9.19381287 59.03123474 9.80880737 C59.13917388 16.00530229 59.25378188 22.20164807 59.37231445 28.39794922 C59.41570376 30.71237069 59.45737584 33.026825 59.49731445 35.34130859 C59.55492032 38.66253573 59.61864251 41.98359692 59.68359375 45.3046875 C59.70030624 46.34430634 59.71701874 47.38392517 59.73423767 48.45504761 C59.7641555 49.89631516 59.7641555 49.89631516 59.79467773 51.36669922 C59.81799416 52.63910965 59.81799416 52.63910965 59.84178162 53.93722534 C59.87429958 56.06318305 59.87429958 56.06318305 61 58 C59.44444444 62.55555556 59.44444444 62.55555556 58 64 C48.45959798 65.28521976 38.74111414 65.18629369 29.1328125 65.18530273 C26.73940759 65.18750977 24.34645021 65.20580468 21.953125 65.22460938 C7.07315867 65.28037355 7.07315867 65.28037355 0 63 C-1.26356322 60.47287356 -1.15210125 58.67655059 -1.18945312 55.84765625 C-1.20617065 54.77314209 -1.22288818 53.69862793 -1.2401123 52.59155273 C-1.25368774 51.42696533 -1.26726318 50.26237793 -1.28125 49.0625 C-1.29965942 47.87148682 -1.31806885 46.68047363 -1.33703613 45.45336914 C-1.41592585 40.33977477 -1.4835234 35.22604416 -1.55224609 30.11230469 C-1.60389012 26.3873018 -1.6611742 22.66241514 -1.71875 18.9375 C-1.73232544 17.7729126 -1.74590088 16.6083252 -1.7598877 15.40844727 C-1.77660522 14.33393311 -1.79332275 13.25941895 -1.81054688 12.15234375 C-1.82307495 11.20351318 -1.83560303 10.25468262 -1.84851074 9.27709961 C-1.85463841 6.96834431 -1.85463841 6.96834431 -3 5 C-1.875 2.375 -1.875 2.375 0 0 Z " fill="#FBFCFC" transform="translate(8,13)"/>
<path d="M0 0 C2.6875 -0.3125 2.6875 -0.3125 5 0 C4.6875 1.875 4.6875 1.875 4 4 C3.01 4.66 2.02 5.32 1 6 C0.56168713 8.33972518 0.56168713 8.33972518 0.65942383 11.09228516 C0.65965042 12.15323395 0.65987701 13.21418274 0.66011047 14.30728149 C0.67559433 15.45626923 0.69107819 16.60525696 0.70703125 17.7890625 C0.71127609 18.96262299 0.71552094 20.13618347 0.71989441 21.3453064 C0.73673024 25.10543454 0.77439223 28.86503297 0.8125 32.625 C0.82754046 35.16926311 0.84122997 37.7135346 0.85351562 40.2578125 C0.88664983 46.50539005 0.93689794 52.75265719 1 59 C0.34 59 -0.32 59 -1 59 C-1.01030746 58.35298126 -1.02061493 57.70596252 -1.03123474 57.03933716 C-1.1391575 50.32380778 -1.2537668 43.60841646 -1.37231445 36.89306641 C-1.41570903 34.38463216 -1.4573807 31.87616751 -1.49731445 29.36767578 C-1.55490757 25.76846132 -1.61863343 22.16940058 -1.68359375 18.5703125 C-1.70030624 17.44319855 -1.71701874 16.31608459 -1.73423767 15.15481567 C-1.75418289 14.11388763 -1.77412811 13.07295959 -1.79467773 12.00048828 C-1.81022202 11.08115509 -1.8257663 10.1618219 -1.84178162 9.21463013 C-1.8610678 6.95924846 -1.8610678 6.95924846 -3 5 C-1.875 2.375 -1.875 2.375 0 0 Z " fill="#D5DCDA" transform="translate(8,13)"/>
<path d="M0 0 C0.66 0 1.32 0 2 0 C2.50615298 1.26839526 3.00469099 2.53983102 3.5 3.8125 C3.91765625 4.87404297 3.91765625 4.87404297 4.34375 5.95703125 C5 8 5 8 5 11 C2.03 11 -0.94 11 -4 11 C-3.5247412 9.35303396 -3.04468109 7.70745272 -2.5625 6.0625 C-2.29566406 5.14597656 -2.02882813 4.22945312 -1.75390625 3.28515625 C-1 1 -1 1 0 0 Z " fill="#FBFCFC" transform="translate(96,32)"/>
<path d="M0 0 C0.33 0 0.66 0 1 0 C1.01030746 0.59690643 1.02061493 1.19381287 1.03123474 1.80880737 C1.13917388 8.00530229 1.25378188 14.20164807 1.37231445 20.39794922 C1.41570376 22.71237069 1.45737584 25.026825 1.49731445 27.34130859 C1.55492032 30.66253573 1.61864251 33.98359692 1.68359375 37.3046875 C1.70030624 38.34430634 1.71701874 39.38392517 1.73423767 40.45504761 C1.75418289 41.41589264 1.77412811 42.37673767 1.79467773 43.36669922 C1.81022202 44.21497284 1.8257663 45.06324646 1.84178162 45.93722534 C1.87429958 48.06318305 1.87429958 48.06318305 3 50 C2.0625 52.125 2.0625 52.125 1 54 C0 53 0 53 -0.12025452 50.86766052 C-0.11803391 49.92834183 -0.11581329 48.98902313 -0.11352539 48.02124023 C-0.11344986 46.96021591 -0.11337433 45.89919159 -0.11329651 44.80601501 C-0.10813522 43.651866 -0.10297394 42.49771698 -0.09765625 41.30859375 C-0.0962413 40.13361832 -0.09482635 38.95864288 -0.09336853 37.74806213 C-0.08774992 33.97784936 -0.07519426 30.20769496 -0.0625 26.4375 C-0.0574874 23.88867273 -0.05292408 21.33984453 -0.04882812 18.79101562 C-0.03777444 12.52732367 -0.02101821 6.26366601 0 0 Z " fill="#ECF0EF" transform="translate(66,21)"/>
<path d="M0 0 C1.65 0 3.3 0 5 0 C4.6189482 2.76262553 4.16402868 3.84143894 2.125 5.8125 C1.42375 6.204375 0.7225 6.59625 0 7 C-0.99 6.67 -1.98 6.34 -3 6 C-2.01 4.02 -1.02 2.04 0 0 Z " fill="#262C1F" transform="translate(8,13)"/>
</svg>
