<?xml version="1.0" encoding="UTF-8"?>
<svg version="1.1" xmlns="http://www.w3.org/2000/svg" width="375" height="81">
<path d="M0 0 C1.13457642 -0.00630432 2.26915283 -0.01260864 3.43811035 -0.019104 C5.28342346 -0.01303131 5.28342346 -0.01303131 7.16601562 -0.00683594 C9.0524176 -0.00970612 9.0524176 -0.00970612 10.97692871 -0.01263428 C13.64019438 -0.01399743 16.30309492 -0.011291 18.96630859 -0.00195312 C22.38297957 0.00944154 25.79933635 0.00288159 29.21599579 -0.00909805 C32.47018042 -0.01805547 35.7243269 -0.01178722 38.97851562 -0.00683594 C40.20872437 -0.0108844 41.43893311 -0.01493286 42.7064209 -0.019104 C44.40828552 -0.00964752 44.40828552 -0.00964752 46.14453125 0 C47.14665649 0.00159119 48.14878174 0.00318237 49.18127441 0.00482178 C51.57226562 0.25878906 51.57226562 0.25878906 53.57226562 2.25878906 C54.06726563 4.73378906 54.06726563 4.73378906 54.57226562 7.25878906 C73.05226562 7.25878906 91.53226563 7.25878906 110.57226562 7.25878906 C110.57226562 5.60878906 110.57226562 3.95878906 110.57226562 2.25878906 C112.57226562 0.25878906 112.57226562 0.25878906 115.01467896 0.01828003 C116.55356277 0.02494186 116.55356277 0.02494186 118.12353516 0.03173828 C119.86511398 0.03196487 119.86511398 0.03196487 121.64187622 0.03219604 C122.90023285 0.04251862 124.15858948 0.05284119 125.45507812 0.06347656 C126.73961884 0.06630646 128.02415955 0.06913635 129.34762573 0.072052 C132.76389329 0.07969097 136.17999099 0.09934154 139.59619141 0.12145996 C143.08168235 0.14191282 146.56720073 0.15105251 150.05273438 0.16113281 C156.89264793 0.18258732 163.73244863 0.21672635 170.57226562 0.25878906 C172.03289413 2.90617823 172.57226562 4.15327241 172.57226562 7.25878906 C191.05226563 7.25878906 209.53226562 7.25878906 228.57226562 7.25878906 C228.57226562 5.60878906 228.57226562 3.95878906 228.57226562 2.25878906 C231.21039987 -0.37934518 232.41080189 0.00075989 236.09179688 -0.01586914 C237.24639404 -0.02540115 238.40099121 -0.03493317 239.59057617 -0.04475403 C240.84265869 -0.04384262 242.09474121 -0.04293121 243.38476562 -0.04199219 C245.30446167 -0.04841988 245.30446167 -0.04841988 247.26293945 -0.05497742 C249.97318663 -0.06244335 252.68330354 -0.06214547 255.39355469 -0.05688477 C258.87085786 -0.05108553 262.34762918 -0.06802943 265.82484436 -0.09122944 C269.13650769 -0.10948075 272.44805218 -0.10578216 275.75976562 -0.10449219 C277.01184814 -0.11370193 278.26393066 -0.12291168 279.55395508 -0.13240051 C281.28585083 -0.12305733 281.28585083 -0.12305733 283.05273438 -0.11352539 C284.07262451 -0.11415482 285.09251465 -0.11478424 286.14331055 -0.11543274 C286.94486572 0.00806046 287.7464209 0.13155365 288.57226562 0.25878906 C290.79512305 3.5930752 290.83182559 4.69188779 290.86279297 8.5847168 C290.87555267 9.67272079 290.88831238 10.76072479 290.90145874 11.88169861 C290.90479721 13.64423729 290.90479721 13.64423729 290.90820312 15.44238281 C290.91485992 16.64943375 290.92151672 17.85648468 290.92837524 19.10011292 C290.93850762 21.65469842 290.94319208 24.20931043 290.94287109 26.76391602 C290.94724447 30.67736283 290.98356102 34.58968249 291.02148438 38.50292969 C291.02735224 40.98274353 291.03132183 43.46256274 291.03320312 45.94238281 C291.04757416 47.11538437 291.06194519 48.28838593 291.07675171 49.49693298 C291.07059845 50.58808914 291.06444519 51.6792453 291.05810547 52.8034668 C291.06095551 53.76260483 291.06380554 54.72174286 291.06674194 55.70994568 C290.41246505 59.08250222 289.32785185 60.24397866 286.57226562 62.25878906 C284.04119873 62.73980713 284.04119873 62.73980713 281.16113281 62.71289062 C279.53990509 62.71243744 279.53990509 62.71243744 277.88592529 62.7119751 C276.72538635 62.69132996 275.56484741 62.67068481 274.36914062 62.64941406 C273.17621399 62.64375427 271.98328735 62.63809448 270.75421143 62.63226318 C266.94315506 62.60986832 263.13303796 62.55966335 259.32226562 62.50878906 C256.73894587 62.48872821 254.15561138 62.47047673 251.57226562 62.45410156 C245.23861169 62.40999317 238.90550576 62.34304884 232.57226562 62.25878906 C232.15242653 63.4561972 232.15242653 63.4561972 231.72410583 64.67779541 C230.57226562 67.25878906 230.57226562 67.25878906 228.14282227 68.5546875 C223.21656192 69.5261292 218.45339932 69.54419918 213.44335938 69.52441406 C212.37610123 69.52632751 211.30884308 69.52824097 210.20924377 69.5302124 C207.95923628 69.53157 205.70922084 69.52790331 203.45922852 69.51953125 C200.01821297 69.50881537 196.57771824 69.51944662 193.13671875 69.53222656 C190.94726448 69.5309051 188.75781052 69.52834298 186.56835938 69.52441406 C185.02757973 69.53048676 185.02757973 69.53048676 183.45567322 69.53668213 C182.01376366 69.52722565 182.01376366 69.52722565 180.54272461 69.51757812 C179.70144516 69.51598694 178.86016571 69.51439575 177.99339294 69.51275635 C175.20359877 69.22011727 173.08317402 68.49948325 170.57226562 67.25878906 C169.69726562 65.25878906 169.69726562 65.25878906 169.57226562 63.25878906 C169.90226563 62.59878906 170.23226562 61.93878906 170.57226562 61.25878906 C169.58226562 61.75378906 169.58226562 61.75378906 168.57226562 62.25878906 C166.84620109 62.34940762 165.11662056 62.37633407 163.38818359 62.37231445 C162.30721405 62.37223892 161.22624451 62.37216339 160.11251831 62.37208557 C158.35622604 62.36434364 158.35622604 62.36434364 156.56445312 62.35644531 C155.36869659 62.35503036 154.17294006 62.35361542 152.94094849 62.35215759 C149.10969576 62.3465457 145.27850079 62.33399114 141.44726562 62.32128906 C138.85481855 62.3162756 136.26237056 62.31171242 133.66992188 62.30761719 C127.30401664 62.2965724 120.93814526 62.27982265 114.57226562 62.25878906 C114.26289063 63.06316406 113.95351562 63.86753906 113.63476562 64.69628906 C112.57226562 67.25878906 112.57226562 67.25878906 111.57226562 68.25878906 C105.41866481 69.25444467 99.382471 69.41926327 93.15820312 69.42675781 C92.18493073 69.43008621 91.21165833 69.43341461 90.20889282 69.43684387 C88.1633552 69.44188032 86.11780944 69.44425322 84.07226562 69.4440918 C80.94973295 69.44628733 77.82754888 69.46450263 74.70507812 69.48339844 C72.71028766 69.48633128 70.71549553 69.4883168 68.72070312 69.48925781 C67.32831924 69.50003609 67.32831924 69.50003609 65.9078064 69.5110321 C61.0560204 69.49396586 57.12704584 69.15637913 52.57226562 67.25878906 C52.07726562 64.28878906 52.07726562 64.28878906 51.57226562 61.25878906 C50.58226562 61.75378906 50.58226562 61.75378906 49.57226562 62.25878906 C47.88757226 62.35432972 46.19911842 62.38674172 44.51171875 62.38818359 C42.92997864 62.39291183 42.92997864 62.39291183 41.31628418 62.3977356 C39.60221375 62.39469925 39.60221375 62.39469925 37.85351562 62.39160156 C36.68469849 62.39255829 35.51588135 62.39351501 34.31164551 62.39450073 C31.83683214 62.39518219 29.36201698 62.39333028 26.88720703 62.38916016 C23.0881755 62.38381146 19.28926221 62.38910634 15.49023438 62.39550781 C13.09049453 62.39484703 10.69075476 62.39356585 8.29101562 62.39160156 C7.148302 62.39362579 6.00558838 62.39565002 4.82824707 62.3977356 C3.77375366 62.39458344 2.71926025 62.39143127 1.6328125 62.38818359 C0.23621399 62.3869902 0.23621399 62.3869902 -1.18859863 62.38577271 C-3.42773438 62.25878906 -3.42773438 62.25878906 -5.42773438 61.25878906 C-5.38648438 62.04253906 -5.34523437 62.82628906 -5.30273438 63.63378906 C-5.42773438 66.25878906 -5.42773438 66.25878906 -7.42773438 68.25878906 C-10.23645753 68.58609233 -12.94835433 68.78884596 -15.76757812 68.89941406 C-16.61134506 68.93746155 -17.455112 68.97550903 -18.32444763 69.01470947 C-27.02544415 69.36084728 -35.7107377 69.2967062 -44.41381836 69.07177734 C-47.04793183 69.00737847 -49.68182357 68.96692135 -52.31640625 68.92675781 C-54.00068483 68.8878288 -55.68493224 68.84752012 -57.36914062 68.80566406 C-58.54386681 68.7913736 -58.54386681 68.7913736 -59.74232483 68.77679443 C-61.92211914 68.70703125 -61.92211914 68.70703125 -65.42773438 68.25878906 C-67.65600284 64.91638637 -67.68368693 63.82003346 -67.70239258 59.91699219 C-67.71192459 58.8257605 -67.7214566 57.73452881 -67.73127747 56.61022949 C-67.73036606 55.43206665 -67.72945465 54.25390381 -67.72851562 53.04003906 C-67.73280075 51.83061646 -67.73708588 50.62119385 -67.74150085 49.37512207 C-67.74724763 46.81633124 -67.74774188 44.25752408 -67.7434082 41.69873047 C-67.740247 37.77445764 -67.76370869 33.85093744 -67.7890625 29.92675781 C-67.79133524 27.44368585 -67.79203911 24.96061185 -67.79101562 22.47753906 C-67.80022537 21.29937622 -67.80943512 20.12121338 -67.81892395 18.90734863 C-67.81269516 17.81611694 -67.80646637 16.72488525 -67.80004883 15.60058594 C-67.80067825 14.63922729 -67.80130768 13.67786865 -67.80195618 12.68737793 C-67.42773438 10.25878906 -67.42773438 10.25878906 -66.24703979 8.44621277 C-63.726616 6.80118334 -61.94647739 6.89798855 -58.9465332 6.91821289 C-57.26512993 6.91855278 -57.26512993 6.91855278 -55.54975891 6.91889954 C-54.34031113 6.93438339 -53.13086334 6.94986725 -51.88476562 6.96582031 C-50.64603195 6.97006516 -49.40729828 6.97431 -48.13102722 6.97868347 C-44.84124437 6.99264174 -41.55190234 7.01958693 -38.26226807 7.05279541 C-34.90406691 7.08350974 -31.54580119 7.09719167 -28.1875 7.11230469 C-21.60073864 7.14541547 -15.01427257 7.19564649 -8.42773438 7.25878906 C-8.24210937 6.08316406 -8.24210937 6.08316406 -8.05273438 4.88378906 C-6.87185292 -0.07591307 -4.60077043 0.00730516 0 0 Z M-4.42773438 3.25878906 C-5.67350094 5.7503222 -5.56136407 7.44005706 -5.57299805 10.22753906 C-5.5793779 11.26201172 -5.58575775 12.29648437 -5.59233093 13.36230469 C-5.59344376 14.48314453 -5.59455658 15.60398437 -5.59570312 16.75878906 C-5.59903152 17.90541016 -5.60235992 19.05203125 -5.60578918 20.23339844 C-5.61085866 22.66112872 -5.6131975 25.08886599 -5.61303711 27.51660156 C-5.61522527 31.24327988 -5.63338562 34.9696631 -5.65234375 38.69628906 C-5.65527725 41.05045471 -5.65726233 43.40462177 -5.65820312 45.75878906 C-5.66538864 46.87962891 -5.67257416 48.00046875 -5.67997742 49.15527344 C-5.67690079 50.18974609 -5.67382416 51.22421875 -5.6706543 52.29003906 C-5.67207932 53.20333984 -5.67350433 54.11664063 -5.67497253 55.05761719 C-5.63615838 57.46620597 -5.63615838 57.46620597 -3.42773438 59.25878906 C-1.0972183 59.57200781 -1.0972183 59.57200781 1.6328125 59.53344727 C2.68730591 59.54297928 3.74179932 59.55251129 4.82824707 59.56233215 C5.97096069 59.56142075 7.11367432 59.56050934 8.29101562 59.55957031 C9.45983276 59.56385544 10.6286499 59.56814056 11.83288574 59.57255554 C14.30769197 59.57830663 16.7825151 59.57879341 19.25732422 59.57446289 C23.05660639 59.57130209 26.85511103 59.59475645 30.65429688 59.62011719 C33.05403547 59.62238989 35.45377617 59.62309381 37.85351562 59.62207031 C39.56758606 59.63588493 39.56758606 59.63588493 41.31628418 59.64997864 C42.37077759 59.64374985 43.425271 59.63752106 44.51171875 59.63110352 C45.90831726 59.63204765 45.90831726 59.63204765 47.33312988 59.63301086 C48.44150208 59.44777107 48.44150208 59.44777107 49.57226562 59.25878906 C51.72516865 56.02943452 51.83010475 55.12013824 51.86279297 51.3918457 C51.87555267 50.40394547 51.88831238 49.41604523 51.90145874 48.39820862 C51.90368439 47.33255173 51.90591003 46.26689484 51.90820312 45.16894531 C51.91485992 44.0728746 51.92151672 42.97680389 51.92837524 41.84751892 C51.9385052 39.52832723 51.94319216 37.20910637 51.94287109 34.88989258 C51.94724438 31.33854252 51.98356231 27.78843479 52.02148438 24.23730469 C52.02735235 21.98535582 52.03132187 19.73340104 52.03320312 17.48144531 C52.04757416 16.41781265 52.06194519 15.35417999 52.07675171 14.25831604 C52.04603679 8.72265452 52.04603679 8.72265452 50.23120117 3.58398438 C45.82632868 1.38862602 41.41584091 1.7515397 36.56835938 1.83300781 C35.49352798 1.83629593 34.41869659 1.83958405 33.31129456 1.8429718 C31.04088277 1.85338942 28.77049759 1.87333374 26.50024414 1.90209961 C23.01954571 1.94616525 19.53953657 1.96353434 16.05859375 1.97558594 C13.85350565 1.98901042 11.64842605 2.00393349 9.44335938 2.02050781 C8.39957626 2.02789474 7.35579315 2.03528168 6.28038025 2.04289246 C5.31250076 2.05572769 4.34462128 2.06856293 3.34741211 2.08178711 C2.49565903 2.09163132 1.64390594 2.10147552 0.76634216 2.11161804 C-1.60590547 2.17816439 -1.60590547 2.17816439 -4.42773438 3.25878906 Z M113.91333008 3.61572266 C111.72308317 7.932419 112.04372113 12.20520798 112.11132812 16.97363281 C112.11224457 18.02152481 112.11316101 19.06941681 112.11410522 20.14906311 C112.12014401 22.36398856 112.13589821 24.57890573 112.16064453 26.79370117 C112.197092 30.18015727 112.20166423 33.5655169 112.20117188 36.95214844 C112.21100555 39.10515266 112.22266364 41.25814949 112.23632812 43.41113281 C112.23855377 44.42271957 112.24077942 45.43430634 112.24307251 46.47654724 C112.25583221 47.42425491 112.26859192 48.37196259 112.28173828 49.34838867 C112.28936188 50.17793564 112.29698547 51.0074826 112.30484009 51.86216736 C112.60986354 54.59573515 113.45262741 56.75789946 114.57226562 59.25878906 C122.08362971 59.30936871 129.59495012 59.34447164 137.10644531 59.36865234 C139.66342815 59.37872944 142.22039942 59.39239132 144.77734375 59.40966797 C148.44599255 59.43384124 152.11448941 59.44525492 155.78320312 59.45410156 C156.93219086 59.46442413 158.08117859 59.4747467 159.26498413 59.48538208 C160.32593292 59.48553314 161.38688171 59.4856842 162.47998047 59.48583984 C163.88562759 59.49250168 163.88562759 59.49250168 165.31967163 59.4992981 C167.77402633 59.47572136 167.77402633 59.47572136 169.57226562 57.25878906 C169.8715657 54.96840447 169.8715657 54.96840447 169.81518555 52.29003906 C169.81826218 51.25556641 169.82133881 50.22109375 169.82450867 49.15527344 C169.81732315 48.03443359 169.81013763 46.91359375 169.80273438 45.75878906 C169.80227615 44.61216797 169.80181793 43.46554688 169.80134583 42.28417969 C169.79832064 39.85643481 169.79042647 37.42869191 169.77807617 35.00097656 C169.75984174 31.2743445 169.75756629 27.54796103 169.7578125 23.82128906 C169.75289663 21.46712024 169.74706802 19.1129531 169.74023438 16.75878906 C169.73912155 15.63794922 169.73800873 14.51710938 169.73686218 13.36230469 C169.73048233 12.32783203 169.72410248 11.29335938 169.7175293 10.22753906 C169.7137175 9.31423828 169.7099057 8.4009375 169.70597839 7.45996094 C169.71403661 5.21553297 169.71403661 5.21553297 168.57226562 3.25878906 C165.68663139 2.29691098 163.79995375 2.11649262 160.79711914 2.08178711 C159.82923965 2.06895187 158.86136017 2.05611664 157.864151 2.04289246 C156.82036789 2.03550552 155.77658478 2.02811859 154.70117188 2.02050781 C153.62729721 2.01243607 152.55342255 2.00436432 151.44700623 1.99604797 C149.17489229 1.98221545 146.90275765 1.97148958 144.63061523 1.96362305 C141.15178362 1.94637345 137.67389331 1.90247474 134.1953125 1.85839844 C131.98893928 1.84827466 129.78255799 1.83975757 127.57617188 1.83300781 C126.53441299 1.81549973 125.49265411 1.79799164 124.41932678 1.779953 C118.96398046 1.79456723 118.96398046 1.79456723 113.91333008 3.61572266 Z M231.57226562 4.25878906 C231.1337738 6.63928384 231.1337738 6.63928384 231.23168945 9.44287109 C231.23191605 10.52384064 231.23214264 11.60481018 231.2323761 12.71853638 C231.24785995 13.88939789 231.26334381 15.0602594 231.27929688 16.26660156 C231.28354172 17.46235809 231.28778656 18.65811462 231.29216003 19.8901062 C231.30899661 23.72155977 231.34665878 27.5524936 231.38476562 31.38378906 C231.39980598 33.9762294 231.41349551 36.56867796 231.42578125 39.16113281 C231.45891645 45.52719654 231.50916532 51.89295568 231.57226562 58.25878906 C234.06379876 59.50455563 235.75353363 59.39241876 238.54101562 59.40405273 C239.57548828 59.41043259 240.60996094 59.41681244 241.67578125 59.42338562 C243.35704102 59.42505486 243.35704102 59.42505486 245.07226562 59.42675781 C246.21888672 59.43008621 247.36550781 59.43341461 248.546875 59.43684387 C250.97460528 59.44191334 253.40234255 59.44425219 255.83007812 59.4440918 C259.55675644 59.44627996 263.28313967 59.46444031 267.00976562 59.48339844 C269.36393127 59.48633193 271.71809834 59.48831702 274.07226562 59.48925781 C275.19310547 59.49644333 276.31394531 59.50362885 277.46875 59.5110321 C279.02045898 59.50641716 279.02045898 59.50641716 280.60351562 59.50170898 C281.51681641 59.503134 282.43011719 59.50455902 283.37109375 59.50602722 C285.77968253 59.46721307 285.77968253 59.46721307 287.57226562 57.25878906 C287.88548437 54.92827299 287.88548437 54.92827299 287.84692383 52.19824219 C287.85645584 51.14374878 287.86598785 50.08925537 287.87580872 49.00280762 C287.87489731 47.86009399 287.8739859 46.71738037 287.87304688 45.54003906 C287.87947456 43.78681335 287.87947456 43.78681335 287.8860321 41.99816895 C287.89178319 39.52336272 287.89226997 37.04853959 287.88793945 34.57373047 C287.88477865 30.7744483 287.90823301 26.97594365 287.93359375 23.17675781 C287.93586646 20.77701922 287.93657037 18.37727852 287.93554688 15.97753906 C287.94475662 14.83482544 287.95396637 13.69211182 287.9634552 12.51477051 C287.95411201 10.9330304 287.95411201 10.9330304 287.94458008 9.31933594 C287.9452095 8.38827026 287.94583893 7.45720459 287.94648743 6.4979248 C287.82299423 5.75901001 287.69950104 5.02009521 287.57226562 4.25878906 C284.32917304 2.09672734 283.43370819 2.00682817 279.68945312 2 C278.6983252 1.99369568 277.70719727 1.98739136 276.68603516 1.980896 C275.08284424 1.98696869 275.08284424 1.98696869 273.44726562 1.99316406 C271.79960205 1.99029388 271.79960205 1.99029388 270.11865234 1.98736572 C267.79524507 1.98600416 265.47183018 1.98969859 263.1484375 1.99804688 C259.58641517 2.00874656 256.02489721 1.99815037 252.46289062 1.98535156 C250.20768118 1.98667316 247.95247204 1.98923556 245.69726562 1.99316406 C244.62847168 1.9891156 243.55967773 1.98506714 242.45849609 1.980896 C240.9718042 1.99035248 240.9718042 1.99035248 239.45507812 2 C238.14627686 2.00238678 238.14627686 2.00238678 236.81103516 2.00482178 C234.28762279 2.11822211 234.28762279 2.11822211 231.57226562 4.25878906 Z M189.63476562 23.57128906 C188.26650746 27.03217737 188.37499774 28.74181464 189.57226562 32.25878906 C193.10849466 36.13723381 197.64600122 37.63823823 202.46289062 39.42675781 C204.57226562 40.25878906 204.57226562 40.25878906 205.57226562 41.25878906 C205.69726562 43.75878906 205.69726562 43.75878906 205.57226562 46.25878906 C204.57226562 47.25878906 204.57226562 47.25878906 202.68164062 47.39160156 C198.51819823 47.37781533 194.63301534 47.30672447 190.57226562 46.25878906 C189.91226562 47.24878906 189.25226563 48.23878906 188.57226562 49.25878906 C193.08688224 53.06057147 196.34289819 53.83962864 202.23632812 53.58300781 C206.33696852 53.01385538 208.53136478 51.29968991 211.38476562 48.44628906 C213.02552504 45.42383751 213.12632682 43.65241388 212.57226562 40.25878906 C209.2178928 35.5626671 205.04058705 34.00699826 199.77929688 32.15332031 C197.57226562 31.25878906 197.57226562 31.25878906 195.57226562 29.25878906 C195.44726562 26.63378906 195.44726562 26.63378906 195.57226562 24.25878906 C196.98882356 24.23154756 198.40553607 24.2122844 199.82226562 24.19628906 C201.005625 24.17888672 201.005625 24.17888672 202.21289062 24.16113281 C204.47917564 24.254936 206.40115513 24.62637844 208.57226562 25.25878906 C209.23226563 23.93878906 209.89226562 22.61878906 210.57226562 21.25878906 C203.13788318 16.90695544 195.51827018 16.5490417 189.63476562 23.57128906 Z M-54.42773438 19.25878906 C-54.42773438 30.47878906 -54.42773438 41.69878906 -54.42773438 53.25878906 C-52.44773437 53.25878906 -50.46773437 53.25878906 -48.42773438 53.25878906 C-48.42773438 45.33878906 -48.42773438 37.41878906 -48.42773438 29.25878906 C-45.35075462 32.33576882 -42.44258013 35.30043809 -39.61523438 38.57128906 C-39.01066406 39.26867187 -38.40609375 39.96605469 -37.78320312 40.68457031 C-37.33589844 41.2040625 -36.88859375 41.72355469 -36.42773438 42.25878906 C-32.9736019 38.90624872 -29.82105895 35.42746797 -26.75976562 31.71191406 C-25.42773438 30.25878906 -25.42773438 30.25878906 -23.42773438 29.25878906 C-23.42773438 37.17878906 -23.42773438 45.09878906 -23.42773438 53.25878906 C-21.77773438 53.25878906 -20.12773438 53.25878906 -18.42773438 53.25878906 C-18.42773438 42.03878906 -18.42773438 30.81878906 -18.42773438 19.25878906 C-23.11912037 18.74428749 -23.11912037 18.74428749 -25.06518555 20.54394531 C-25.52900635 21.13046875 -25.99282715 21.71699219 -26.47070312 22.32128906 C-26.98697266 22.95292969 -27.50324219 23.58457031 -28.03515625 24.23535156 C-28.55658203 24.90308594 -29.07800781 25.57082031 -29.61523438 26.25878906 C-30.66618046 27.57533096 -31.72193224 28.88805577 -32.78320312 30.19628906 C-33.24364014 30.7828125 -33.70407715 31.36933594 -34.1784668 31.97363281 C-34.5907251 32.39773437 -35.0029834 32.82183594 -35.42773438 33.25878906 C-36.08773437 33.25878906 -36.74773438 33.25878906 -37.42773438 33.25878906 C-39.73416728 30.30414299 -41.94512579 27.31001135 -44.08789062 24.23535156 C-44.78978516 23.28789062 -44.78978516 23.28789062 -45.50585938 22.32128906 C-45.92254883 21.73476563 -46.33923828 21.14824219 -46.76855469 20.54394531 C-48.86853091 18.64642818 -48.86853091 18.64642818 -54.42773438 19.25878906 Z M66.57226562 19.25878906 C66.57226562 30.47878906 66.57226562 41.69878906 66.57226562 53.25878906 C68.55226562 53.25878906 70.53226563 53.25878906 72.57226562 53.25878906 C72.57226562 45.99878906 72.57226562 38.73878906 72.57226562 31.25878906 C76.51615242 32.57341799 78.00701974 35.10249665 80.38476562 38.32128906 C80.82908936 38.90676514 81.27341309 39.49224121 81.73120117 40.09545898 C83.67311414 42.6624042 85.56296258 45.24523549 87.38476562 47.89941406 C87.87976563 48.61613281 88.37476563 49.33285156 88.88476562 50.07128906 C89.29339844 50.69648437 89.70203125 51.32167969 90.12304688 51.96582031 C91.87039438 53.81356901 91.87039438 53.81356901 96.57226562 53.25878906 C96.57226562 42.03878906 96.57226562 30.81878906 96.57226562 19.25878906 C94.92226562 19.25878906 93.27226562 19.25878906 91.57226562 19.25878906 C91.57226562 26.18878906 91.57226562 33.11878906 91.57226562 40.25878906 C86.94898467 37.48482049 84.57082137 35.08505259 81.50976562 30.88378906 C80.25506059 29.2006013 78.9994516 27.51831133 77.73583984 25.84179688 C76.65784984 24.37522382 75.64501579 22.861358 74.63867188 21.34472656 C73.95675781 20.65636719 73.27484375 19.96800781 72.57226562 19.25878906 C70.59226563 19.25878906 68.61226562 19.25878906 66.57226562 19.25878906 Z " fill="#010000" transform="translate(77.427734375,5.7412109375)"/>
<path d="M0 0 C2.97 0 5.94 0 9 0 C9 4.62 9 9.24 9 14 C13.62 14 18.24 14 23 14 C23 9.38 23 4.76 23 0 C25.97 0 28.94 0 32 0 C32 12.21 32 24.42 32 37 C29.03 37 26.06 37 23 37 C23 32.38 23 27.76 23 23 C18.38 23 13.76 23 9 23 C9 27.62 9 32.24 9 37 C6.03 37 3.06 37 0 37 C0 24.79 0 12.58 0 0 Z " fill="#010101" transform="translate(321,17)"/>
<path d="M0 0 C1.51400391 0.01740234 1.51400391 0.01740234 3.05859375 0.03515625 C4.07050781 0.04417969 5.08242187 0.05320312 6.125 0.0625 C7.29869141 0.07990234 7.29869141 0.07990234 8.49609375 0.09765625 C10.35389105 4.88239648 12.20512198 9.66960491 14.05029297 14.45922852 C14.67902318 16.08850641 15.30954744 17.71709316 15.94189453 19.3449707 C16.8500988 21.68391748 17.75183861 24.02526756 18.65234375 26.3671875 C18.93670288 27.09541214 19.22106201 27.82363678 19.51403809 28.57392883 C20.65573259 31.5589051 21.49609375 33.87276229 21.49609375 37.09765625 C18.19609375 37.09765625 14.89609375 37.09765625 11.49609375 37.09765625 C10.50609375 34.78765625 9.51609375 32.47765625 8.49609375 30.09765625 C4.53609375 29.76765625 0.57609375 29.43765625 -3.50390625 29.09765625 C-3.81328125 30.23203125 -4.12265625 31.36640625 -4.44140625 32.53515625 C-5.50390625 36.09765625 -5.50390625 36.09765625 -6.50390625 37.09765625 C-9.83718467 37.24010405 -13.16844518 37.13987728 -16.50390625 37.09765625 C-14.26570589 29.05505629 -11.39953198 21.31304988 -8.37890625 13.53515625 C-7.92386719 12.34857422 -7.46882813 11.16199219 -7 9.93945312 C-3.20926691 0.12516642 -3.20926691 0.12516642 0 0 Z M2.49609375 14.09765625 C1.83609375 16.07765625 1.17609375 18.05765625 0.49609375 20.09765625 C2.14609375 20.09765625 3.79609375 20.09765625 5.49609375 20.09765625 C4.83609375 18.11765625 4.17609375 16.13765625 3.49609375 14.09765625 C3.16609375 14.09765625 2.83609375 14.09765625 2.49609375 14.09765625 Z " fill="#010101" transform="translate(97.50390625,17.90234375)"/>
<path d="M0 0 C2.97 0 5.94 0 9 0 C9.16723554 5.10845794 9.32783286 10.21706404 9.48217773 15.32592773 C9.53567262 17.06524323 9.59100755 18.80450312 9.64819336 20.54370117 C9.72989627 23.03812666 9.80506164 25.53267483 9.87890625 28.02734375 C9.90594131 28.80963852 9.93297638 29.59193329 9.96083069 30.39793396 C10.01288386 32.26460933 10.01187025 34.13263674 10 36 C9.505 36.495 9.505 36.495 9 37 C6.03 37 3.06 37 0 37 C0 24.79 0 12.58 0 0 Z " fill="#010101" transform="translate(215,19)"/>
<path d="M0 0 C0.66 0 1.32 0 2 0 C2.05059881 6.22961977 2.08569062 12.4591868 2.10986328 18.68896484 C2.11993751 20.8094277 2.13359733 22.92987661 2.15087891 25.05029297 C2.17506489 28.09345943 2.18646869 31.13644266 2.1953125 34.1796875 C2.20563507 35.13181122 2.21595764 36.08393494 2.22659302 37.06491089 C2.22674408 37.94567291 2.22689514 38.82643494 2.22705078 39.73388672 C2.231492 40.51110077 2.23593323 41.28831482 2.24050903 42.08908081 C2 44 2 44 0 46 C-1.05362231 30.58469516 -0.8465514 15.42412813 0 0 Z " fill="#070707" transform="translate(366,15)"/>
</svg>
